<svg viewBoxSize="575" data-root-id="4246319613061" xmlns="http://www.w3.org/2000/svg" xmlns:xlink="http://www.w3.org/1999/xlink" version="1.1" id="Layer_1" x="265.774" y="207.442" viewBox="24.400001525878906 44.19376754760742 124.70000457763672 84.20622253417969" xml:space="preserve" height="80.05792236328125" width="118.55683637438707" preserveAspectRatio="xMinYMin" zoom="1" editorType="buyer" data-layer-role="icon" style="position: absolute; height: 80.0579px; width: 118.557px; top: 207.442px; left: 265.774px;"><path class="st0" d="M58,119.6c-3.4-3.2-5.8-6.8-7.3-10.7l-19.3,0.6c-3.9,0.1-7-2.9-7-6.7V67.7c0-3.8,3.1-7.3,7-7.9l68.1-9.5   c5.2-0.7,9.6,2.3,9.6,6.9v7.1c-1.1,0.7-2.2,1.3-3.1,1.9L89.1,76.3c-3.9,2.3-3.9,5.4,0,7.1l16.9,7.2c0.9,0.4,2,0.8,3.1,1.3V99   c0,4.6-4.4,8.4-9.6,8.5l-31.2,0.9c0.4,7.2,3.6,14.3,9.9,20C70.5,127.6,63.4,124.6,58,119.6z" name="Layer %{number}" zoom="1" data-layer-id="7041393513061" style="fill-rule: evenodd; clip-rule: evenodd; fill: rgb(162, 69, 255); fill-opacity: 1;"></path><path class="st0" d="M140.5,105.3l-19.1-8.2c-3.4-1.4-8.3-3.6-12.3-5.2V64.4c3.9-2.3,8.9-5.3,12.3-7.3l19.1-11.4   c4.7-2.8,8.6-1.6,8.6,2.8v18.4c0,4.4,0,11.4,0,15.8v18.4C149.1,105.5,145.2,107.3,140.5,105.3z" name="Layer %{number}" zoom="1" data-layer-id="5999943813061" style="fill-rule: evenodd; clip-rule: evenodd; fill: rgb(162, 69, 255); fill-opacity: 1;"></path></svg>